<?xml version="1.0" encoding="utf-8"?>
<!-- Generator: Adobe Illustrator 23.0.0, SVG Export Plug-In . SVG Version: 6.00 Build 0)  -->
<svg version="1.1" id="Слой_1" xmlns="http://www.w3.org/2000/svg" xmlns:xlink="http://www.w3.org/1999/xlink" x="0px" y="0px"
	 viewBox="0 0 53.3 11.13" style="enable-background:new 0 0 53.3 11.13;" xml:space="preserve">
<style type="text/css">
	.st0{fill:#FFFFFF;}
</style>
<g>
	<path class="st0" d="M5.6,0.93c0.5,0.5,0.8,1.2,0.8,2.2v5H5.7v-1.4c-0.3,0.5-0.6,0.8-1.1,1.1c-0.5,0.3-1,0.4-1.7,0.4
		c-0.9,0-1.6-0.2-2.1-0.6c-0.5-0.4-0.8-1-0.8-1.6c0-0.7,0.2-1.2,0.7-1.6s1.2-0.6,2.2-0.6h2.7v-0.6c0-0.7-0.2-1.3-0.6-1.7
		c-0.4-0.4-1-0.6-1.7-0.6c-0.5,0-1,0.1-1.5,0.3s-0.9,0.4-1.2,0.7l-0.3-0.6c0.4-0.3,0.9-0.6,1.4-0.8s1.1-0.3,1.7-0.3
		C4.4,0.23,5.1,0.53,5.6,0.93z M4.6,7.13c0.5-0.3,0.8-0.7,1-1.3v-1.5H2.9c-0.8,0-1.3,0.1-1.7,0.4c-0.3,0.3-0.5,0.7-0.5,1.2
		s0.2,0.9,0.6,1.2s0.9,0.4,1.6,0.4C3.6,7.53,4.2,7.43,4.6,7.13z"/>
	<path class="st0" d="M16.6,0.33v7c0,1.3-0.3,2.3-0.9,2.9c-0.6,0.6-1.6,0.9-2.8,0.9c-0.7,0-1.4-0.1-2-0.3s-1.1-0.5-1.5-0.9l0.4-0.6
		c0.4,0.4,0.9,0.6,1.4,0.8c0.6,0.2,1.1,0.3,1.8,0.3c1,0,1.8-0.3,2.3-0.7s0.8-1.3,0.8-2.3v-1.3c-0.3,0.6-0.8,1-1.3,1.3
		s-1.2,0.5-1.9,0.5s-1.4-0.2-2-0.5s-1.1-0.8-1.4-1.4c-0.3-0.6-0.5-1.2-0.5-2c0-0.7,0.2-1.4,0.5-2s0.8-1,1.4-1.3s1.3-0.5,2-0.5
		s1.4,0.2,2,0.5s1,0.8,1.3,1.3v-1.8C15.9,0.33,16.6,0.33,16.6,0.33z M14.3,6.73c0.5-0.3,0.9-0.6,1.2-1.1s0.4-1,0.4-1.6
		s-0.1-1.2-0.4-1.6c-0.3-0.5-0.7-0.8-1.2-1.1s-1-0.4-1.6-0.4s-1.2,0.1-1.6,0.4c-0.5,0.3-0.9,0.6-1.1,1.1c-0.3,0.5-0.4,1-0.4,1.6
		s0.1,1.2,0.4,1.6c0.3,0.5,0.7,0.8,1.1,1.1c0.5,0.3,1,0.4,1.6,0.4S13.8,7.03,14.3,6.73z"/>
	<path class="st0" d="M26.4,4.43h-6.7c0,0.6,0.2,1.2,0.5,1.6s0.7,0.8,1.2,1.1s1.1,0.4,1.7,0.4c0.5,0,1-0.1,1.4-0.3s0.8-0.5,1.1-0.8
		l0.4,0.5c-0.3,0.4-0.8,0.7-1.3,1c-0.5,0.2-1.1,0.3-1.7,0.3c-0.8,0-1.5-0.2-2.1-0.5c-0.6-0.3-1.1-0.8-1.4-1.4
		c-0.3-0.6-0.5-1.3-0.5-2c0-0.8,0.2-1.4,0.5-2s0.8-1.1,1.3-1.4c0.6-0.3,1.2-0.5,1.9-0.5s1.3,0.2,1.9,0.5s1,0.8,1.3,1.4
		c0.3,0.6,0.5,1.3,0.5,2L26.4,4.43z M21.2,1.23c-0.4,0.3-0.8,0.6-1.1,1s-0.4,1-0.5,1.5h6c0-0.6-0.2-1.1-0.4-1.5s-0.6-0.8-1.1-1
		c-0.4-0.3-0.9-0.4-1.5-0.4C22.1,0.93,21.6,1.03,21.2,1.23z"/>
	<path class="st0" d="M34.9,1.13c0.6,0.6,0.8,1.4,0.8,2.5v4.6h-0.8v-4.5c0-0.9-0.2-1.5-0.7-2s-1.1-0.7-1.9-0.7
		c-0.9,0-1.6,0.3-2.2,0.8s-0.8,1.3-0.8,2.2v4.2h-0.8v-7.8h0.7v1.7c0.3-0.5,0.7-1,1.2-1.3s1.2-0.5,1.9-0.5
		C33.5,0.23,34.3,0.53,34.9,1.13z"/>
	<path class="st0" d="M39.9,7.63c-0.6-0.3-1.1-0.8-1.4-1.4c-0.3-0.6-0.5-1.3-0.5-2c0-0.8,0.2-1.5,0.5-2.1s0.8-1.1,1.4-1.4
		c0.6-0.3,1.3-0.5,2-0.5c0.6,0,1.2,0.1,1.7,0.4c0.5,0.3,0.9,0.6,1.3,1.1l-0.6,0.4c-0.3-0.4-0.6-0.7-1-0.9s-0.9-0.3-1.4-0.3
		c-0.6,0-1.2,0.1-1.6,0.4c-0.5,0.3-0.9,0.7-1.1,1.2s-0.4,1.1-0.4,1.7c0,0.7,0.1,1.2,0.4,1.7s0.7,0.9,1.1,1.2c0.5,0.3,1,0.4,1.6,0.4
		c0.5,0,1-0.1,1.4-0.3s0.8-0.5,1-0.9l0.6,0.4c-0.3,0.5-0.7,0.8-1.3,1.1c-0.5,0.3-1.1,0.4-1.7,0.4C41.2,8.23,40.5,8.03,39.9,7.63z"/>
	<path class="st0" d="M53.3,0.33l-4,8.9c-0.3,0.7-0.7,1.2-1,1.5c-0.4,0.3-0.9,0.4-1.4,0.4c-0.4,0-0.7-0.1-1-0.2s-0.6-0.3-0.8-0.5
		l0.4-0.6c0.4,0.4,0.9,0.6,1.5,0.6c0.4,0,0.7-0.1,1-0.3s0.5-0.6,0.8-1.1l0.4-1l-3.5-7.8h0.8l3.1,7l3.1-7L53.3,0.33L53.3,0.33z"/>
</g>
</svg>
